<svg xmlns="http://www.w3.org/2000/svg" viewBox="0 0 128 128" fill="none">
  <circle cx="64" cy="64" r="60" fill="#0a0d10" fill-opacity="0.72" stroke="#3dd6c6" stroke-width="3.5"/>
  <circle cx="64" cy="64" r="46" fill="#3dd6c6"/>
  <!-- stylized S / scout path -->
  <path
    d="M78 44c-3.2-4.8-9-7.8-16.2-7.8-12.2 0-20.4 7.2-20.4 17.2 0 8.6 5.8 13.2 16.8 15.4l6.2 1.3c6.4 1.3 9.2 3.4 9.2 7.2 0 4.6-4.4 7.6-11.2 7.6-6.2 0-10.8-2.4-13.6-7.2l-8.2 5.2c4.4 7.8 12.6 12.2 22 12.2 13.4 0 22-7.4 22-18 0-9.2-6.2-14-17.4-16.4l-6.2-1.3c-5.8-1.2-8.4-3.2-8.4-6.8 0-4 3.8-6.8 9.6-6.8 5.2 0 9 2 11.4 5.8L78 44z"
    fill="#0a0d10"
  />
  <circle cx="64" cy="64" r="52" stroke="#3dd6c6" stroke-opacity="0.35" stroke-width="1.5"/>
</svg>
